<svg width="118" height="89" viewBox="0 0 118 89" fill="none" xmlns="http://www.w3.org/2000/svg">
<path d="M117.439 44.1946C117.439 64.1226 101.285 80.2756 81.3577 80.2756C61.4297 80.2756 45.2757 64.1226 45.2757 44.1946C45.2757 24.2666 61.4297 8.11365 81.3577 8.11365C101.285 8.11365 117.439 24.2676 117.439 44.1946Z" fill="#FFD150"/>
<path d="M33.1984 11.0208L38.7089 5.51038L33.1984 -5.36041e-05L27.688 5.5104L33.1984 11.0208Z" fill="#2D4680"/>
<path d="M40.1154 21.0674L45.6258 15.557L40.1154 10.0466L34.605 15.557L40.1154 21.0674Z" fill="#2D4680"/>
<path d="M26.2747 21.0679L31.7852 15.5575L26.2747 10.0471L20.7643 15.5575L26.2747 21.0679Z" fill="#2D4680"/>
<path d="M47.04 30.3645L52.5504 24.854L47.04 19.3436L41.5295 24.854L47.04 30.3645Z" fill="#2D4680"/>
<path d="M33.1982 30.3648L38.7086 24.8544L33.1982 19.3439L27.6877 24.8544L33.1982 30.3648Z" fill="#2D4680"/>
<path d="M19.3573 30.3642L24.8677 24.8538L19.3572 19.3433L13.8468 24.8537L19.3573 30.3642Z" fill="#2D4680"/>
<path d="M53.9553 40.406L59.4657 34.8956L53.9553 29.3852L48.4449 34.8956L53.9553 40.406Z" fill="#2D4680"/>
<path d="M40.1134 40.4055L45.6238 34.8951L40.1133 29.3847L34.6029 34.8951L40.1134 40.4055Z" fill="#2D4680"/>
<path d="M26.2727 40.4062L31.7831 34.8958L26.2727 29.3853L20.7623 34.8957L26.2727 40.4062Z" fill="#2D4680"/>
<path d="M12.4313 40.4065L17.9417 34.8961L12.4313 29.3857L6.92087 34.8961L12.4313 40.4065Z" fill="#2D4680"/>
<path d="M60.8788 49.7016L66.3892 44.1912L60.8788 38.6807L55.3683 44.1912L60.8788 49.7016Z" fill="#2D4680"/>
<path d="M47.0371 49.702L52.5475 44.1915L47.0371 38.6811L41.5267 44.1915L47.0371 49.702Z" fill="#2D4680"/>
<path d="M33.1953 49.7022L38.7057 44.1918L33.1953 38.6813L27.6849 44.1918L33.1953 49.7022Z" fill="#2D4680"/>
<path d="M19.3545 49.7019L24.8649 44.1915L19.3545 38.6811L13.8441 44.1915L19.3545 49.7019Z" fill="#2D4680"/>
<path d="M5.5104 49.6961L11.0208 44.1857L5.51038 38.6752L-2.45941e-05 44.1856L5.5104 49.6961Z" fill="#2D4680"/>
<path d="M53.958 59.756L59.4684 54.2456L53.958 48.7352L48.4476 54.2456L53.958 59.756Z" fill="#2D4680"/>
<path d="M40.1161 59.7554L45.6265 54.245L40.1161 48.7346L34.6057 54.245L40.1161 59.7554Z" fill="#2D4680"/>
<path d="M26.2754 59.7559L31.7858 54.2455L26.2753 48.7351L20.7649 54.2455L26.2754 59.7559Z" fill="#2D4680"/>
<path d="M12.4336 59.7563L17.944 54.2458L12.4336 48.7354L6.92319 54.2458L12.4336 59.7563Z" fill="#2D4680"/>
<path d="M47.0405 69.0529L52.5509 63.5425L47.0405 58.0321L41.53 63.5425L47.0405 69.0529Z" fill="#2D4680"/>
<path d="M33.1985 69.0533L38.709 63.5428L33.1986 58.0324L27.6881 63.5429L33.1985 69.0533Z" fill="#2D4680"/>
<path d="M19.3576 69.0528L24.868 63.5424L19.3576 58.0319L13.8471 63.5423L19.3576 69.0528Z" fill="#2D4680"/>
<path d="M40.1161 79.0994L45.6265 73.589L40.116 68.0786L34.6056 73.589L40.1161 79.0994Z" fill="#2D4680"/>
<path d="M26.2754 79.0999L31.7858 73.5895L26.2753 68.079L20.7649 73.5895L26.2754 79.0999Z" fill="#2D4680"/>
<path d="M33.1961 88.3906L38.7065 82.8801L33.1961 77.3697L27.6857 82.8801L33.1961 88.3906Z" fill="#2D4680"/>
</svg>
