<svg width="221" height="221" viewBox="0 0 221 221" fill="none" xmlns="http://www.w3.org/2000/svg">
<path d="M110.13 220.243C170.881 220.243 220.13 170.994 220.13 110.243C220.13 49.4917 170.881 0.243042 110.13 0.243042C49.3787 0.243042 0.130005 49.4917 0.130005 110.243C0.130005 170.994 49.3787 220.243 110.13 220.243Z" fill="#2D4680"/>
<path d="M52.695 154.577C52.695 156.907 50.806 158.796 48.476 158.796C46.146 158.796 44.257 156.907 44.257 154.577C44.257 152.247 46.146 150.358 48.476 150.358C50.806 150.358 52.695 152.247 52.695 154.577Z" fill="#F7FAFB"/>
<path d="M73.237 159.297C70.635 159.297 68.517 157.18 68.517 154.577C68.517 151.975 70.634 149.858 73.237 149.858C75.84 149.858 77.957 151.975 77.957 154.577C77.957 157.18 75.84 159.297 73.237 159.297ZM73.237 150.858C71.186 150.858 69.517 152.526 69.517 154.577C69.517 156.628 71.186 158.297 73.237 158.297C75.288 158.297 76.957 156.628 76.957 154.577C76.957 152.526 75.288 150.858 73.237 150.858Z" fill="#FFD150"/>
<path d="M97.999 159.297C95.397 159.297 93.279 157.18 93.279 154.577C93.279 151.975 95.396 149.858 97.999 149.858C100.602 149.858 102.719 151.975 102.719 154.577C102.719 157.18 100.602 159.297 97.999 159.297ZM97.999 150.858C95.948 150.858 94.279 152.526 94.279 154.577C94.279 156.628 95.948 158.297 97.999 158.297C100.05 158.297 101.719 156.628 101.719 154.577C101.719 152.526 100.05 150.858 97.999 150.858Z" fill="#FFD150"/>
<path d="M126.98 154.577C126.98 156.907 125.091 158.796 122.761 158.796C120.431 158.796 118.541 156.907 118.541 154.577C118.541 152.247 120.43 150.358 122.761 150.358C125.091 150.358 126.98 152.247 126.98 154.577Z" fill="#FB5253"/>
<path d="M147.522 159.297C144.92 159.297 142.803 157.18 142.803 154.577C142.803 151.975 144.92 149.858 147.522 149.858C150.124 149.858 152.242 151.975 152.242 154.577C152.241 157.18 150.124 159.297 147.522 159.297ZM147.522 150.858C145.471 150.858 143.803 152.526 143.803 154.577C143.803 156.628 145.471 158.297 147.522 158.297C149.573 158.297 151.242 156.628 151.242 154.577C151.242 152.526 149.572 150.858 147.522 150.858Z" fill="#FFD150"/>
<path d="M176.503 154.577C176.503 156.907 174.614 158.796 172.284 158.796C169.954 158.796 168.064 156.907 168.064 154.577C168.064 152.247 169.953 150.358 172.284 150.358C174.614 150.358 176.503 152.247 176.503 154.577Z" fill="#F7FAFB"/>
<path d="M48.476 180.627C45.874 180.627 43.757 178.51 43.757 175.908C43.757 173.305 45.874 171.188 48.476 171.188C51.078 171.188 53.196 173.305 53.196 175.908C53.195 178.51 51.078 180.627 48.476 180.627ZM48.476 172.188C46.425 172.188 44.757 173.857 44.757 175.908C44.757 177.959 46.425 179.627 48.476 179.627C50.527 179.627 52.196 177.959 52.196 175.908C52.195 173.857 50.526 172.188 48.476 172.188Z" fill="#FFD150"/>
<path d="M77.457 175.908C77.457 178.238 75.568 180.127 73.237 180.127C70.907 180.127 69.018 178.238 69.018 175.908C69.018 173.578 70.907 171.689 73.237 171.689C75.568 171.688 77.457 173.577 77.457 175.908Z" fill="#FFD150"/>
<path d="M102.218 175.908C102.218 178.238 100.329 180.127 97.999 180.127C95.669 180.127 93.78 178.238 93.78 175.908C93.78 173.578 95.669 171.689 97.999 171.689C100.329 171.688 102.218 173.577 102.218 175.908Z" fill="#FFD150"/>
<path d="M122.761 180.627C120.158 180.627 118.041 178.51 118.041 175.908C118.041 173.305 120.158 171.188 122.761 171.188C125.363 171.188 127.48 173.305 127.48 175.908C127.48 178.51 125.362 180.627 122.761 180.627ZM122.761 172.188C120.71 172.188 119.041 173.857 119.041 175.908C119.041 177.959 120.71 179.627 122.761 179.627C124.812 179.627 126.48 177.959 126.48 175.908C126.48 173.857 124.812 172.188 122.761 172.188Z" fill="#FFD150"/>
<path d="M151.741 175.908C151.741 178.238 149.852 180.127 147.522 180.127C145.192 180.127 143.302 178.238 143.302 175.908C143.302 173.578 145.191 171.689 147.522 171.689C149.852 171.688 151.741 173.577 151.741 175.908Z" fill="#F7FAFB"/>
<path d="M176.503 175.908C176.503 178.238 174.614 180.127 172.284 180.127C169.954 180.127 168.064 178.238 168.064 175.908C168.064 173.578 169.953 171.689 172.284 171.689C174.614 171.688 176.503 173.577 176.503 175.908Z" fill="#FB5253"/>
</svg>
