<svg width="241" height="232" viewBox="0 0 241 232" fill="none" xmlns="http://www.w3.org/2000/svg">
<path d="M162.276 85.761H161.298V82.761H162.276V85.761ZM149.298 85.761H137.298V82.761H149.298V85.761ZM125.298 85.761H113.298V82.761H125.298V85.761ZM101.298 85.761H89.2979V82.761H101.298V85.761ZM77.2979 85.761H65.2979V82.761H77.2979V85.761ZM53.2979 85.761H41.2979V82.761H53.2979V85.761ZM29.2979 85.761H17.2979V82.761H29.2979V85.761ZM7.31595 96.778H4.31595V84.778H7.31595V96.778ZM7.31595 120.778H4.31595V108.778H7.31595V120.778ZM7.31595 144.778H4.31595V132.778H7.31595V144.778ZM7.31595 168.778H4.31595V156.778H7.31595V168.778ZM7.31595 186H11.094V189H4.31595V180.778H7.31595V186ZM155.094 189H143.094V186H155.094V189ZM131.094 189H119.094V186H131.094V189ZM107.094 189H95.094V186H107.094V189ZM83.094 189H71.094V186H83.094V189ZM59.094 189H47.094V186H59.094V189ZM35.094 189H23.094V186H35.094V189Z" fill="#2D4680"/>
<path d="M240.998 231.133C209.392 230.825 180.801 217.891 160.039 197.128C139.034 176.123 126.035 147.11 126.018 115.067H126.083V115.002H240.998V231.133Z" fill="#F38697"/>
<path d="M126 115L241 115V0L126 0L126 115Z" fill="#FFD150"/>
<path d="M217.86 153.991C219.259 155.39 219.259 157.659 217.86 159.058C216.461 160.457 214.192 160.457 212.793 159.058C211.394 157.659 211.394 155.39 212.793 153.991C214.192 152.592 216.461 152.592 217.86 153.991Z" fill="#F7FAFB"/>
<path d="M188.44 153.991C189.839 155.39 189.839 157.659 188.44 159.058C187.041 160.457 184.772 160.457 183.373 159.058C181.974 157.659 181.974 155.39 183.373 153.991C184.773 152.592 187.041 152.592 188.44 153.991Z" fill="#F7FAFB"/>
<path d="M198.083 139.281C199.482 137.882 201.751 137.882 203.15 139.281C204.549 140.68 204.549 142.949 203.15 144.348C201.751 145.747 199.482 145.747 198.083 144.348C196.684 142.949 196.684 140.68 198.083 139.281Z" fill="#F7FAFB"/>
<path d="M198.083 168.701C199.482 167.302 201.751 167.302 203.15 168.701C204.549 170.1 204.549 172.369 203.15 173.768C201.751 175.167 199.482 175.167 198.083 173.768C196.684 172.368 196.684 170.1 198.083 168.701Z" fill="#F7FAFB"/>
<path d="M18.343 31.9841C30.607 19.9561 46.565 13.9391 62.524 13.9391C78.669 13.9391 94.814 20.0931 107.134 32.4011L107.109 32.4261L107.134 32.4511L62.972 76.6131L18.343 31.9841Z" fill="#FFD150"/>
<path d="M151.397 76.6365L107.203 32.442L63.0084 76.6365L107.203 120.831L151.397 76.6365Z" fill="#2D4680"/>
<path d="M107.253 120.863L107.239 32.3851L63.007 76.6171L107.253 120.863Z" fill="#E64564"/>
<path d="M18.861 120.725L63.027 76.5591L18.394 31.9271C16.831 33.5181 15.375 35.1731 14.024 36.8771C13.579 37.4211 13.154 37.9731 12.744 38.5391C11.514 40.1791 10.389 41.8691 9.34998 43.6021C8.97498 44.2171 8.61501 44.8471 8.26801 45.4761C7.23601 47.3291 6.30899 49.2171 5.48199 51.1471C5.18499 51.8401 4.90198 52.5331 4.62598 53.2331C3.81298 55.3191 3.11301 57.4471 2.54001 59.6041C2.32801 60.3821 2.13 61.1741 1.953 61.9591C1.394 64.3561 0.984011 66.7741 0.730011 69.2071C0.624011 70.1051 0.54599 71.0031 0.48999 71.9081C0.39799 73.3011 0.348999 74.7081 0.348999 76.1081C0.348999 77.5361 0.399009 78.9581 0.497009 80.3721C0.568009 81.4611 0.667006 82.5361 0.794006 83.6111C1.22501 87.2241 1.96799 90.8091 3.02899 94.3171C3.47399 95.8231 3.97699 97.3011 4.54199 98.7721C7.61099 106.776 12.377 114.272 18.811 120.721L18.832 120.7L18.861 120.725Z" fill="#F38697"/>
<path d="M56.897 82.6891L58.368 81.2181L14.025 36.8751C13.58 37.4191 13.155 37.9711 12.745 38.5371L56.897 82.6891Z" fill="#EAE5D8"/>
<path d="M51.19 88.3961L52.668 86.9181L9.35101 43.6001C8.97601 44.2151 8.61598 44.8451 8.26898 45.4741L51.19 88.3961Z" fill="#EAE5D8"/>
<path d="M45.491 94.0951L46.962 92.6241L5.48297 51.1451C5.18597 51.8381 4.90301 52.5311 4.62701 53.2311L45.491 94.0951Z" fill="#EAE5D8"/>
<path d="M39.792 99.794L41.263 98.323L2.54199 59.6021C2.32999 60.3801 2.13199 61.1721 1.95499 61.9571L39.792 99.794Z" fill="#EAE5D8"/>
<path d="M34.085 105.501L35.556 104.03L0.730988 69.2051C0.624988 70.1031 0.546997 71.0011 0.490997 71.9061L34.085 105.501Z" fill="#EAE5D8"/>
<path d="M107.204 120.838L63.009 76.6431L18.814 120.838C43.222 145.246 82.795 145.246 107.204 120.838Z" fill="#2D4680"/>
<path d="M194.644 36.876H184.336V75.669H194.644V36.876Z" fill="#2D4680"/>
<path d="M208.887 51.119H170.093V61.427H208.887V51.119Z" fill="#2D4680"/>
</svg>
