<svg width="158" height="90" viewBox="0 0 158 90" fill="none" xmlns="http://www.w3.org/2000/svg">
<path d="M61.7752 51.0948C65.3363 35.8166 55.8377 20.5443 40.5595 16.9832C25.2813 13.4221 10.009 22.9207 6.44793 38.1989C2.88684 53.4771 12.3854 68.7494 27.6636 72.3105C42.9418 75.8716 58.2141 66.373 61.7752 51.0948Z" fill="#FFD150"/>
<path d="M78.7751 89.286L34.1351 44.64L78.7751 0L96.0541 17.271L68.6861 44.639L96.0541 72.007L78.7751 89.286ZM35.5491 44.64L78.7741 87.872L94.6391 72.007L67.2711 44.639L94.6391 17.271L78.7741 1.41302L35.5491 44.64Z" fill="#32456B"/>
<path d="M96.6121 44.64L140.544 0.707031L157.116 17.272L129.748 44.64L157.116 72.0081L140.544 88.579L96.6121 44.64Z" fill="#2D4680"/>
<path d="M46.0811 47.4562C47.6379 40.8237 43.5232 34.1851 36.8908 32.6283C30.2583 31.0715 23.6197 35.1862 22.0629 41.8186C20.5061 48.451 24.6208 55.0897 31.2532 56.6465C37.8857 58.2032 44.5243 54.0886 46.0811 47.4562Z" fill="#F7FAFB"/>
</svg>
