<svg width="125" height="33" viewBox="0 0 125 33" fill="none" xmlns="http://www.w3.org/2000/svg">
<path d="M6.04599 3.02301C6.04599 4.69201 4.69298 6.04602 3.02298 6.04602C1.35298 6.04602 0 4.69201 0 3.02301C0 1.35301 1.35298 0 3.02298 0C4.69298 0 6.04599 1.35401 6.04599 3.02301Z" fill="#FB5253"/>
<path d="M17.924 3.02301C17.924 4.69201 16.57 6.04602 14.901 6.04602C13.231 6.04602 11.878 4.69201 11.878 3.02301C11.878 1.35301 13.232 0 14.901 0C16.57 0 17.924 1.35401 17.924 3.02301Z" fill="#FB5253"/>
<path d="M29.801 3.02301C29.801 4.69201 28.447 6.04602 26.778 6.04602C25.108 6.04602 23.755 4.69201 23.755 3.02301C23.755 1.35301 25.109 0 26.778 0C28.447 0 29.801 1.35401 29.801 3.02301Z" fill="#FB5253"/>
<path d="M41.678 3.02301C41.678 4.69201 40.324 6.04602 38.655 6.04602C36.985 6.04602 35.632 4.69201 35.632 3.02301C35.632 1.35301 36.986 0 38.655 0C40.324 0 41.678 1.35401 41.678 3.02301Z" fill="#FB5253"/>
<path d="M53.555 3.02301C53.555 4.69201 52.201 6.04602 50.532 6.04602C48.862 6.04602 47.509 4.69201 47.509 3.02301C47.509 1.35301 48.863 0 50.532 0C52.201 0 53.555 1.35401 53.555 3.02301Z" fill="#FB5253"/>
<path d="M65.432 3.02301C65.432 4.69201 64.078 6.04602 62.409 6.04602C60.739 6.04602 59.386 4.69201 59.386 3.02301C59.386 1.35301 60.74 0 62.409 0C64.078 0 65.432 1.35401 65.432 3.02301Z" fill="#FB5253"/>
<path d="M77.309 3.02301C77.309 4.69201 75.955 6.04602 74.286 6.04602C72.616 6.04602 71.263 4.69201 71.263 3.02301C71.263 1.35301 72.617 0 74.286 0C75.955 0 77.309 1.35401 77.309 3.02301Z" fill="#FB5253"/>
<path d="M89.186 3.02301C89.186 4.69201 87.832 6.04602 86.163 6.04602C84.493 6.04602 83.14 4.69201 83.14 3.02301C83.14 1.35301 84.494 0 86.163 0C87.832 0 89.186 1.35401 89.186 3.02301Z" fill="#FB5253"/>
<path d="M101.063 3.02301C101.063 4.69201 99.709 6.04602 98.04 6.04602C96.371 6.04602 95.017 4.69201 95.017 3.02301C95.017 1.35301 96.371 0 98.04 0C99.709 0 101.063 1.35401 101.063 3.02301Z" fill="#FB5253"/>
<path d="M112.94 3.02301C112.94 4.69201 111.586 6.04602 109.917 6.04602C108.247 6.04602 106.894 4.69201 106.894 3.02301C106.894 1.35301 108.248 0 109.917 0C111.586 0 112.94 1.35401 112.94 3.02301Z" fill="#FB5253"/>
<path d="M124.817 3.02301C124.817 4.69201 123.464 6.04602 121.794 6.04602C120.124 6.04602 118.771 4.69201 118.771 3.02301C118.771 1.35301 120.124 0 121.794 0C123.464 0 124.817 1.35401 124.817 3.02301Z" fill="#FB5253"/>
<path d="M6.04599 16.1819C6.04599 17.8519 4.69298 19.205 3.02298 19.205C1.35298 19.205 0 17.8509 0 16.1819C0 14.5119 1.35298 13.1589 3.02298 13.1589C4.69298 13.1589 6.04599 14.5119 6.04599 16.1819Z" fill="#FB5253"/>
<path d="M17.924 16.1819C17.924 17.8519 16.57 19.205 14.901 19.205C13.231 19.205 11.878 17.8509 11.878 16.1819C11.878 14.5119 13.232 13.1589 14.901 13.1589C16.57 13.1589 17.924 14.5119 17.924 16.1819Z" fill="#FB5253"/>
<path d="M29.801 16.1819C29.801 17.8519 28.447 19.205 26.778 19.205C25.108 19.205 23.755 17.8509 23.755 16.1819C23.755 14.5119 25.109 13.1589 26.778 13.1589C28.447 13.1589 29.801 14.5119 29.801 16.1819Z" fill="#FB5253"/>
<path d="M41.678 16.1819C41.678 17.8519 40.324 19.205 38.655 19.205C36.985 19.205 35.632 17.8509 35.632 16.1819C35.632 14.5119 36.986 13.1589 38.655 13.1589C40.324 13.1589 41.678 14.5119 41.678 16.1819Z" fill="#FB5253"/>
<path d="M53.555 16.1819C53.555 17.8519 52.201 19.205 50.532 19.205C48.862 19.205 47.509 17.8509 47.509 16.1819C47.509 14.5119 48.863 13.1589 50.532 13.1589C52.201 13.1589 53.555 14.5119 53.555 16.1819Z" fill="#FB5253"/>
<path d="M65.432 16.1819C65.432 17.8519 64.078 19.205 62.409 19.205C60.739 19.205 59.386 17.8509 59.386 16.1819C59.386 14.5119 60.74 13.1589 62.409 13.1589C64.078 13.1589 65.432 14.5119 65.432 16.1819Z" fill="#FB5253"/>
<path d="M77.309 16.1819C77.309 17.8519 75.955 19.205 74.286 19.205C72.616 19.205 71.263 17.8509 71.263 16.1819C71.263 14.5119 72.617 13.1589 74.286 13.1589C75.955 13.1589 77.309 14.5119 77.309 16.1819Z" fill="#FB5253"/>
<path d="M89.186 16.1819C89.186 17.8519 87.832 19.205 86.163 19.205C84.493 19.205 83.14 17.8509 83.14 16.1819C83.14 14.5119 84.494 13.1589 86.163 13.1589C87.832 13.1589 89.186 14.5119 89.186 16.1819Z" fill="#FB5253"/>
<path d="M101.063 16.1819C101.063 17.8519 99.709 19.205 98.04 19.205C96.371 19.205 95.017 17.8509 95.017 16.1819C95.017 14.5119 96.371 13.1589 98.04 13.1589C99.709 13.1589 101.063 14.5119 101.063 16.1819Z" fill="#FB5253"/>
<path d="M112.94 16.1819C112.94 17.8519 111.586 19.205 109.917 19.205C108.247 19.205 106.894 17.8509 106.894 16.1819C106.894 14.5119 108.248 13.1589 109.917 13.1589C111.586 13.1589 112.94 14.5119 112.94 16.1819Z" fill="#FB5253"/>
<path d="M124.817 16.1819C124.817 17.8519 123.464 19.205 121.794 19.205C120.124 19.205 118.771 17.8509 118.771 16.1819C118.771 14.5119 120.124 13.1589 121.794 13.1589C123.464 13.1589 124.817 14.5119 124.817 16.1819Z" fill="#FB5253"/>
<path d="M6.04599 29.341C6.04599 31.01 4.69298 32.364 3.02298 32.364C1.35298 32.364 0 31.01 0 29.341C0 27.671 1.35298 26.318 3.02298 26.318C4.69298 26.318 6.04599 27.671 6.04599 29.341Z" fill="#FB5253"/>
<path d="M17.924 29.341C17.924 31.01 16.57 32.364 14.901 32.364C13.231 32.364 11.878 31.01 11.878 29.341C11.878 27.671 13.232 26.318 14.901 26.318C16.57 26.317 17.924 27.671 17.924 29.341Z" fill="#FB5253"/>
<path d="M29.801 29.341C29.801 31.01 28.447 32.364 26.778 32.364C25.108 32.364 23.755 31.01 23.755 29.341C23.755 27.671 25.109 26.318 26.778 26.318C28.447 26.317 29.801 27.671 29.801 29.341Z" fill="#FB5253"/>
<path d="M41.678 29.341C41.678 31.01 40.324 32.364 38.655 32.364C36.985 32.364 35.632 31.01 35.632 29.341C35.632 27.671 36.986 26.318 38.655 26.318C40.324 26.317 41.678 27.671 41.678 29.341Z" fill="#FB5253"/>
<path d="M53.555 29.341C53.555 31.01 52.201 32.364 50.532 32.364C48.862 32.364 47.509 31.01 47.509 29.341C47.509 27.671 48.863 26.318 50.532 26.318C52.201 26.317 53.555 27.671 53.555 29.341Z" fill="#FB5253"/>
<path d="M65.432 29.341C65.432 31.01 64.078 32.364 62.409 32.364C60.739 32.364 59.386 31.01 59.386 29.341C59.386 27.671 60.74 26.318 62.409 26.318C64.078 26.317 65.432 27.671 65.432 29.341Z" fill="#FB5253"/>
<path d="M77.309 29.341C77.309 31.01 75.955 32.364 74.286 32.364C72.616 32.364 71.263 31.01 71.263 29.341C71.263 27.671 72.617 26.318 74.286 26.318C75.955 26.317 77.309 27.671 77.309 29.341Z" fill="#FB5253"/>
<path d="M89.186 29.341C89.186 31.01 87.832 32.364 86.163 32.364C84.493 32.364 83.14 31.01 83.14 29.341C83.14 27.671 84.494 26.318 86.163 26.318C87.832 26.317 89.186 27.671 89.186 29.341Z" fill="#FB5253"/>
<path d="M101.063 29.341C101.063 31.01 99.709 32.364 98.04 32.364C96.371 32.364 95.017 31.01 95.017 29.341C95.017 27.671 96.371 26.318 98.04 26.318C99.709 26.317 101.063 27.671 101.063 29.341Z" fill="#FB5253"/>
<path d="M112.94 29.341C112.94 31.01 111.586 32.364 109.917 32.364C108.247 32.364 106.894 31.01 106.894 29.341C106.894 27.671 108.248 26.318 109.917 26.318C111.586 26.317 112.94 27.671 112.94 29.341Z" fill="#FB5253"/>
<path d="M124.817 29.341C124.817 31.01 123.464 32.364 121.794 32.364C120.124 32.364 118.771 31.01 118.771 29.341C118.771 27.671 120.124 26.318 121.794 26.318C123.464 26.318 124.817 27.671 124.817 29.341Z" fill="#FB5253"/>
</svg>
