<svg width="321" height="272" viewBox="0 0 321 272" fill="none" xmlns="http://www.w3.org/2000/svg">
<path d="M60.4899 0L52.5809 15.888L60.5809 31.965L52.5809 48.039L60.5809 64.113L52.5809 80.185L60.5809 96.26L53.3279 110.833H55.562L62.8149 96.26L54.8149 80.185L62.8149 64.113L54.8149 48.039L62.8149 31.965L54.8149 15.888L62.7239 0H60.4899Z" fill="#2D4680"/>
<path d="M69.582 0L61.673 15.888L69.673 31.965L61.673 48.039L69.673 64.113L61.673 80.185L69.673 96.26L62.42 110.833H64.654L71.908 96.26L63.908 80.185L71.908 64.113L63.908 48.039L71.908 31.965L63.908 15.888L71.816 0H69.582Z" fill="#2D4680"/>
<path d="M78.674 0L70.766 15.888L78.766 31.965L70.766 48.039L78.766 64.113L70.766 80.185L78.766 96.26L71.512 110.833H73.746L81 96.26L73 80.185L81 64.113L73 48.039L81 31.965L73 15.888L80.909 0H78.674Z" fill="#2D4680"/>
<path d="M87.7659 0L79.8569 15.888L87.8569 31.965L79.8569 48.039L87.8569 64.113L79.8569 80.185L87.8569 96.26L80.6039 110.833H82.838L90.0919 96.26L82.0919 80.185L90.0919 64.113L82.0919 48.039L90.0919 31.965L82.0919 15.888L89.9999 0H87.7659Z" fill="#2D4680"/>
<path d="M207.528 271.808C268.279 271.808 317.528 222.559 317.528 161.808C317.528 101.057 268.279 51.808 207.528 51.808C146.777 51.808 97.528 101.057 97.528 161.808C97.528 222.559 146.777 271.808 207.528 271.808Z" fill="#E64564"/>
<path d="M67.334 251.769C104.522 251.769 134.668 221.623 134.668 184.435C134.668 147.247 104.522 117.101 67.334 117.101C30.1464 117.101 0 147.247 0 184.435C0 221.623 30.1464 251.769 67.334 251.769Z" fill="#F38697"/>
<path d="M139.319 39.87C156.578 39.87 170.569 53.861 170.569 71.12C170.569 88.379 156.578 102.37 139.319 102.37C122.06 102.37 108.069 88.379 108.069 71.12C108.069 53.862 122.06 39.87 139.319 39.87Z" fill="#FFD150"/>
<path d="M139.225 39.833H108.05V70.998H139.225V39.833Z" fill="#2D4680"/>
<path d="M271.066 248.182L143.572 120.688H140.744L268.238 248.182H271.066Z" fill="#EAE5D8"/>
<path d="M287.607 248.182L160.113 120.688H157.285L284.779 248.182H287.607Z" fill="#EAE5D8"/>
<path d="M304.148 248.182L176.655 120.688H173.826L301.32 248.182H304.148Z" fill="#EAE5D8"/>
<path d="M320.69 248.182L193.196 120.688H190.368L317.862 248.182H320.69Z" fill="#EAE5D8"/>
</svg>
