<svg width="382" height="344" viewBox="0 0 382 344" fill="none" xmlns="http://www.w3.org/2000/svg">
<path d="M201.018 189.729C158.612 189.729 124.236 224.106 124.236 266.512C124.236 308.918 158.613 343.294 201.018 343.294C243.423 343.294 277.8 308.917 277.8 266.512C277.801 224.106 243.424 189.729 201.018 189.729ZM201.018 303.258C180.724 303.258 164.273 286.806 164.273 266.512C164.273 246.218 180.724 229.766 201.018 229.766C221.312 229.766 237.764 246.218 237.764 266.512C237.764 286.806 221.312 303.258 201.018 303.258Z" fill="#FFD150"/>
<path d="M262.729 222.595C262.729 224.264 261.376 225.618 259.706 225.618C258.036 225.618 256.683 224.264 256.683 222.595C256.683 220.925 258.036 219.572 259.706 219.572C261.376 219.572 262.729 220.926 262.729 222.595Z" fill="#FB5253"/>
<path d="M274.607 222.595C274.607 224.264 273.253 225.618 271.584 225.618C269.914 225.618 268.561 224.264 268.561 222.595C268.561 220.925 269.915 219.572 271.584 219.572C273.253 219.572 274.607 220.926 274.607 222.595Z" fill="#FB5253"/>
<path d="M286.484 222.595C286.484 224.264 285.13 225.618 283.461 225.618C281.791 225.618 280.438 224.264 280.438 222.595C280.438 220.925 281.792 219.572 283.461 219.572C285.13 219.572 286.484 220.926 286.484 222.595Z" fill="#FB5253"/>
<path d="M298.361 222.595C298.361 224.264 297.007 225.618 295.338 225.618C293.668 225.618 292.315 224.264 292.315 222.595C292.315 220.925 293.669 219.572 295.338 219.572C297.007 219.572 298.361 220.926 298.361 222.595Z" fill="#FB5253"/>
<path d="M310.238 222.595C310.238 224.264 308.884 225.618 307.215 225.618C305.545 225.618 304.192 224.264 304.192 222.595C304.192 220.925 305.546 219.572 307.215 219.572C308.884 219.572 310.238 220.926 310.238 222.595Z" fill="#FB5253"/>
<path d="M322.115 222.595C322.115 224.264 320.761 225.618 319.092 225.618C317.422 225.618 316.069 224.264 316.069 222.595C316.069 220.925 317.423 219.572 319.092 219.572C320.761 219.572 322.115 220.926 322.115 222.595Z" fill="#FB5253"/>
<path d="M333.992 222.595C333.992 224.264 332.638 225.618 330.969 225.618C329.299 225.618 327.946 224.264 327.946 222.595C327.946 220.925 329.3 219.572 330.969 219.572C332.638 219.572 333.992 220.926 333.992 222.595Z" fill="#FB5253"/>
<path d="M345.869 222.595C345.869 224.264 344.515 225.618 342.846 225.618C341.176 225.618 339.823 224.264 339.823 222.595C339.823 220.925 341.177 219.572 342.846 219.572C344.515 219.572 345.869 220.926 345.869 222.595Z" fill="#FB5253"/>
<path d="M357.746 222.595C357.746 224.264 356.392 225.618 354.723 225.618C353.054 225.618 351.7 224.264 351.7 222.595C351.7 220.925 353.054 219.572 354.723 219.572C356.392 219.572 357.746 220.926 357.746 222.595Z" fill="#FB5253"/>
<path d="M369.623 222.595C369.623 224.264 368.269 225.618 366.6 225.618C364.93 225.618 363.577 224.264 363.577 222.595C363.577 220.925 364.931 219.572 366.6 219.572C368.269 219.572 369.623 220.926 369.623 222.595Z" fill="#FB5253"/>
<path d="M381.5 222.595C381.5 224.264 380.147 225.618 378.477 225.618C376.807 225.618 375.454 224.264 375.454 222.595C375.454 220.925 376.807 219.572 378.477 219.572C380.147 219.572 381.5 220.926 381.5 222.595Z" fill="#FB5253"/>
<path d="M262.729 235.754C262.729 237.424 261.376 238.777 259.706 238.777C258.036 238.777 256.683 237.423 256.683 235.754C256.683 234.084 258.036 232.731 259.706 232.731C261.376 232.731 262.729 234.084 262.729 235.754Z" fill="#FB5253"/>
<path d="M274.607 235.754C274.607 237.424 273.253 238.777 271.584 238.777C269.914 238.777 268.561 237.423 268.561 235.754C268.561 234.084 269.915 232.731 271.584 232.731C273.253 232.731 274.607 234.084 274.607 235.754Z" fill="#FB5253"/>
<path d="M286.484 235.754C286.484 237.424 285.13 238.777 283.461 238.777C281.791 238.777 280.438 237.423 280.438 235.754C280.438 234.084 281.792 232.731 283.461 232.731C285.13 232.731 286.484 234.084 286.484 235.754Z" fill="#FB5253"/>
<path d="M298.361 235.754C298.361 237.424 297.007 238.777 295.338 238.777C293.668 238.777 292.315 237.423 292.315 235.754C292.315 234.084 293.669 232.731 295.338 232.731C297.007 232.731 298.361 234.084 298.361 235.754Z" fill="#FB5253"/>
<path d="M310.238 235.754C310.238 237.424 308.884 238.777 307.215 238.777C305.545 238.777 304.192 237.423 304.192 235.754C304.192 234.084 305.546 232.731 307.215 232.731C308.884 232.731 310.238 234.084 310.238 235.754Z" fill="#FB5253"/>
<path d="M322.115 235.754C322.115 237.424 320.761 238.777 319.092 238.777C317.422 238.777 316.069 237.423 316.069 235.754C316.069 234.084 317.423 232.731 319.092 232.731C320.761 232.731 322.115 234.084 322.115 235.754Z" fill="#FB5253"/>
<path d="M333.992 235.754C333.992 237.424 332.638 238.777 330.969 238.777C329.299 238.777 327.946 237.423 327.946 235.754C327.946 234.084 329.3 232.731 330.969 232.731C332.638 232.731 333.992 234.084 333.992 235.754Z" fill="#FB5253"/>
<path d="M345.869 235.754C345.869 237.424 344.515 238.777 342.846 238.777C341.176 238.777 339.823 237.423 339.823 235.754C339.823 234.084 341.177 232.731 342.846 232.731C344.515 232.731 345.869 234.084 345.869 235.754Z" fill="#FB5253"/>
<path d="M357.746 235.754C357.746 237.424 356.392 238.777 354.723 238.777C353.054 238.777 351.7 237.423 351.7 235.754C351.7 234.084 353.054 232.731 354.723 232.731C356.392 232.731 357.746 234.084 357.746 235.754Z" fill="#FB5253"/>
<path d="M369.623 235.754C369.623 237.424 368.269 238.777 366.6 238.777C364.93 238.777 363.577 237.423 363.577 235.754C363.577 234.084 364.931 232.731 366.6 232.731C368.269 232.731 369.623 234.084 369.623 235.754Z" fill="#FB5253"/>
<path d="M381.5 235.754C381.5 237.424 380.147 238.777 378.477 238.777C376.807 238.777 375.454 237.423 375.454 235.754C375.454 234.084 376.807 232.731 378.477 232.731C380.147 232.731 381.5 234.084 381.5 235.754Z" fill="#FB5253"/>
<path d="M262.729 248.913C262.729 250.582 261.376 251.936 259.706 251.936C258.036 251.936 256.683 250.582 256.683 248.913C256.683 247.243 258.036 245.89 259.706 245.89C261.376 245.89 262.729 247.243 262.729 248.913Z" fill="#FB5253"/>
<path d="M274.607 248.913C274.607 250.582 273.253 251.936 271.584 251.936C269.914 251.936 268.561 250.582 268.561 248.913C268.561 247.243 269.915 245.89 271.584 245.89C273.253 245.889 274.607 247.243 274.607 248.913Z" fill="#FB5253"/>
<path d="M286.484 248.913C286.484 250.582 285.13 251.936 283.461 251.936C281.791 251.936 280.438 250.582 280.438 248.913C280.438 247.243 281.792 245.89 283.461 245.89C285.13 245.889 286.484 247.243 286.484 248.913Z" fill="#FB5253"/>
<path d="M298.361 248.913C298.361 250.582 297.007 251.936 295.338 251.936C293.668 251.936 292.315 250.582 292.315 248.913C292.315 247.243 293.669 245.89 295.338 245.89C297.007 245.889 298.361 247.243 298.361 248.913Z" fill="#FB5253"/>
<path d="M310.238 248.913C310.238 250.582 308.884 251.936 307.215 251.936C305.545 251.936 304.192 250.582 304.192 248.913C304.192 247.243 305.546 245.89 307.215 245.89C308.884 245.889 310.238 247.243 310.238 248.913Z" fill="#FB5253"/>
<path d="M322.115 248.913C322.115 250.582 320.761 251.936 319.092 251.936C317.422 251.936 316.069 250.582 316.069 248.913C316.069 247.243 317.423 245.89 319.092 245.89C320.761 245.889 322.115 247.243 322.115 248.913Z" fill="#FB5253"/>
<path d="M333.992 248.913C333.992 250.582 332.638 251.936 330.969 251.936C329.299 251.936 327.946 250.582 327.946 248.913C327.946 247.243 329.3 245.89 330.969 245.89C332.638 245.889 333.992 247.243 333.992 248.913Z" fill="#FB5253"/>
<path d="M345.869 248.913C345.869 250.582 344.515 251.936 342.846 251.936C341.176 251.936 339.823 250.582 339.823 248.913C339.823 247.243 341.177 245.89 342.846 245.89C344.515 245.889 345.869 247.243 345.869 248.913Z" fill="#FB5253"/>
<path d="M357.746 248.913C357.746 250.582 356.392 251.936 354.723 251.936C353.054 251.936 351.7 250.582 351.7 248.913C351.7 247.243 353.054 245.89 354.723 245.89C356.392 245.889 357.746 247.243 357.746 248.913Z" fill="#FB5253"/>
<path d="M369.623 248.913C369.623 250.582 368.269 251.936 366.6 251.936C364.93 251.936 363.577 250.582 363.577 248.913C363.577 247.243 364.931 245.89 366.6 245.89C368.269 245.889 369.623 247.243 369.623 248.913Z" fill="#FB5253"/>
<path d="M381.5 248.913C381.5 250.582 380.147 251.936 378.477 251.936C376.807 251.936 375.454 250.582 375.454 248.913C375.454 247.243 376.807 245.89 378.477 245.89C380.147 245.89 381.5 247.243 381.5 248.913Z" fill="#FB5253"/>
<path d="M110.001 216.137C110.001 155.386 60.752 106.137 0.001 106.137H0V267.302H97.394C105.44 252.017 110.001 234.611 110.001 216.137Z" fill="#2D4680"/>
<path d="M154.213 61.5001C154.213 81.4281 138.059 97.5811 118.132 97.5811C98.204 97.5811 82.05 81.4281 82.05 61.5001C82.05 41.5721 98.204 25.4191 118.132 25.4191C138.059 25.4191 154.213 41.5731 154.213 61.5001Z" fill="#FFD150"/>
<path d="M118.131 71.5C78.706 71.5 46.631 39.425 46.631 0H66.631C66.631 28.398 89.734 51.5 118.131 51.5V71.5Z" fill="#2D4680"/>
<path d="M183.018 267.302C183.018 267.302 183.018 240.721 183.018 200.851C183.018 195.867 183.018 190.675 183.018 185.302C183.018 182.616 183.018 179.883 183.018 177.109C183.018 175.722 183.018 174.325 183.018 172.917C182.986 171.724 182.952 170.521 182.919 169.312C182.385 159.723 179.631 149.728 174.272 140.71C171.645 136.179 168.305 131.974 164.536 128.12C160.687 124.348 156.393 120.901 151.618 118.172C142.144 112.562 131.029 109.618 119.825 109.582C108.621 109.618 97.506 112.561 88.032 118.172C83.257 120.9 78.963 124.348 75.114 128.119C71.345 131.972 68.005 136.179 65.378 140.709C60.019 149.728 57.265 159.722 56.731 169.311C56.698 170.521 56.665 171.723 56.632 172.916C56.632 174.324 56.632 175.722 56.632 177.108C56.632 179.883 56.632 182.615 56.632 185.301C56.632 190.674 56.632 195.866 56.632 200.85C56.632 240.72 56.632 267.301 56.632 267.301" stroke="#FB5253" stroke-width="2" stroke-miterlimit="10"/>
<path d="M189.018 267.302C189.018 267.302 189.018 240.721 189.018 200.851C189.018 195.867 189.018 190.675 189.018 185.302C189.018 182.616 189.018 179.883 189.018 177.109C189.018 175.722 189.018 174.325 189.018 172.917C188.983 171.616 188.947 170.307 188.911 168.988C188.332 158.499 185.307 147.532 179.439 137.659C176.559 132.7 172.91 128.093 168.782 123.88C164.573 119.749 159.87 115.983 154.643 112.99C144.271 106.85 132.071 103.614 119.825 103.582C107.579 103.613 95.379 106.85 85.007 112.989C79.781 115.982 75.077 119.748 70.868 123.879C66.74 128.092 63.091 132.699 60.21 137.658C54.342 147.532 51.317 158.498 50.738 168.987C50.702 170.305 50.666 171.616 50.631 172.916C50.631 174.324 50.631 175.722 50.631 177.108C50.631 179.883 50.631 182.615 50.631 185.301C50.631 190.674 50.631 195.866 50.631 200.85C50.631 240.72 50.631 267.301 50.631 267.301" stroke="#FB5253" stroke-width="2" stroke-miterlimit="10"/>
<path d="M195.018 267.302C195.018 267.302 195.018 240.721 195.018 200.851C195.018 195.867 195.018 190.675 195.018 185.302C195.018 182.616 195.018 179.883 195.018 177.109C195.018 175.722 195.018 174.325 195.018 172.917C194.984 171.51 194.96 170.092 194.902 168.666C194.278 157.274 190.982 145.338 184.606 134.608C181.472 129.22 177.514 124.212 173.027 119.639C168.46 115.148 163.346 111.064 157.668 107.808C146.399 101.138 133.113 97.6091 119.825 97.5811C106.537 97.6071 93.252 101.137 81.982 107.807C76.304 111.063 71.19 115.148 66.623 119.638C62.135 124.211 58.177 129.22 55.044 134.607C48.667 145.337 45.372 157.273 44.747 168.665C44.688 170.091 44.664 171.509 44.631 172.916C44.631 174.324 44.631 175.722 44.631 177.108C44.631 179.883 44.631 182.615 44.631 185.301C44.631 190.674 44.631 195.866 44.631 200.85C44.631 240.72 44.631 267.301 44.631 267.301" stroke="#FB5253" stroke-width="2" stroke-miterlimit="10"/>
<path d="M201.018 267.302C201.018 267.302 201.018 240.721 201.018 200.851C201.018 195.867 201.018 190.675 201.018 185.302C201.018 182.616 201.018 179.883 201.018 177.109C201.018 175.722 201.018 174.325 201.018 172.917C200.984 171.422 200.958 169.876 200.893 168.343C200.223 156.051 196.657 143.143 189.772 131.558C186.386 125.742 182.119 120.332 177.272 115.4C172.345 110.549 166.822 106.147 160.693 102.627C148.524 95.427 134.155 91.605 119.825 91.582C105.496 91.604 91.126 95.427 78.958 102.626C72.828 106.146 67.305 110.548 62.378 115.398C57.531 120.331 53.264 125.741 49.878 131.556C42.993 143.141 39.426 156.049 38.757 168.341C38.692 169.874 38.666 171.42 38.632 172.915C38.632 174.323 38.632 175.721 38.632 177.107C38.632 179.882 38.632 182.614 38.632 185.3C38.632 190.673 38.632 195.865 38.632 200.849C38.632 240.719 38.632 267.3 38.632 267.3" stroke="#FB5253" stroke-width="2" stroke-miterlimit="10"/>
<path d="M207.018 267.302C207.018 267.302 207.018 240.721 207.018 200.851C207.018 195.867 207.018 190.675 207.018 185.302C207.018 182.616 207.018 179.883 207.018 177.109C207.018 175.722 207.018 174.325 207.018 172.917C206.985 171.333 206.955 169.66 206.884 168.02C206.169 154.827 202.331 140.948 194.939 128.508C191.299 122.263 186.724 116.452 181.517 111.159C176.231 105.949 170.298 101.227 163.717 97.444C150.651 89.715 135.196 85.599 119.824 85.582C104.453 85.6 88.998 89.715 75.932 97.444C69.351 101.227 63.418 105.948 58.132 111.159C52.925 116.451 48.349 122.262 44.71 128.507C37.317 140.946 33.479 154.825 32.764 168.019C32.693 169.66 32.664 171.333 32.63 172.917C32.63 174.325 32.63 175.723 32.63 177.109C32.63 179.884 32.63 182.616 32.63 185.302C32.63 190.675 32.63 195.867 32.63 200.851C32.63 240.721 32.63 267.302 32.63 267.302" stroke="#FB5253" stroke-width="2" stroke-miterlimit="10"/>
</svg>
