<svg width="99" height="99" viewBox="0 0 99 99" fill="none" xmlns="http://www.w3.org/2000/svg">
<path d="M49.079 68.591C59.8552 68.591 68.591 59.8552 68.591 49.079C68.591 38.3028 59.8552 29.567 49.079 29.567C38.3028 29.567 29.567 38.3028 29.567 49.079C29.567 59.8552 38.3028 68.591 49.079 68.591Z" fill="#FB5253"/>
<path d="M49.079 82.018C30.916 82.018 16.14 67.242 16.14 49.079C16.14 30.917 30.916 16.14 49.079 16.14C67.242 16.14 82.018 30.916 82.018 49.079C82.018 67.242 67.241 82.018 49.079 82.018ZM49.079 18.933C32.456 18.933 18.933 32.456 18.933 49.079C18.933 65.702 32.457 79.225 49.079 79.225C65.701 79.225 79.225 65.701 79.225 49.079C79.225 32.456 65.701 18.933 49.079 18.933Z" fill="#2D4680"/>
<path d="M49.079 98.157C22.017 98.157 0 76.14 0 49.078C0 22.016 22.017 0 49.079 0C76.141 0 98.157 22.016 98.157 49.078C98.157 76.141 76.141 98.157 49.079 98.157ZM49.079 2.79399C23.557 2.79399 2.793 23.558 2.793 49.079C2.793 74.601 23.557 95.365 49.079 95.365C74.6 95.365 95.364 74.601 95.364 49.079C95.364 23.557 74.6 2.79399 49.079 2.79399Z" fill="#2D4680"/>
</svg>
