<svg width="276" height="239" viewBox="0 0 276 239" fill="none" xmlns="http://www.w3.org/2000/svg">
<path d="M167.05 117.739H275.153V21.191C275.153 20.42 274.528 19.795 273.756 19.795C272.985 19.795 272.36 20.42 272.36 21.191V114.946H167.05C166.279 114.946 165.654 115.571 165.654 116.342C165.654 117.113 166.279 117.739 167.05 117.739Z" fill="#FFBC00"/>
<path d="M167.05 109.41H265.812V21.191C265.812 20.42 265.187 19.795 264.415 19.795C263.644 19.795 263.019 20.42 263.019 21.191V106.617H167.05C166.279 106.617 165.654 107.242 165.654 108.013C165.654 108.784 166.279 109.41 167.05 109.41Z" fill="#FFBC00"/>
<path d="M167.05 101.081H256.471V21.191C256.471 20.42 255.846 19.795 255.075 19.795C254.304 19.795 253.679 20.42 253.679 21.191V98.288H167.05C166.279 98.288 165.654 98.913 165.654 99.684C165.654 100.455 166.279 101.081 167.05 101.081Z" fill="#FFBC00"/>
<path d="M167.05 92.751H247.13V21.191C247.13 20.42 246.505 19.795 245.734 19.795C244.963 19.795 244.338 20.42 244.338 21.191V89.958H167.05C166.279 89.958 165.654 90.583 165.654 91.354C165.654 92.125 166.279 92.751 167.05 92.751Z" fill="#FFBC00"/>
<path d="M167.05 84.422H237.789V21.192C237.789 20.421 237.164 19.796 236.393 19.796C235.622 19.796 234.997 20.421 234.997 21.192V81.63H167.05C166.279 81.63 165.654 82.255 165.654 83.026C165.654 83.797 166.279 84.422 167.05 84.422Z" fill="#FFBC00"/>
<path d="M124.535 208.512C135.311 208.512 144.047 199.776 144.047 189C144.047 178.224 135.311 169.488 124.535 169.488C113.759 169.488 105.023 178.224 105.023 189C105.023 199.776 113.759 208.512 124.535 208.512Z" fill="#FB5253"/>
<path d="M124.535 221.939C106.372 221.939 91.596 207.163 91.596 189C91.596 170.838 106.372 156.061 124.535 156.061C142.698 156.061 157.474 170.837 157.474 189C157.474 207.163 142.697 221.939 124.535 221.939ZM124.535 158.854C107.912 158.854 94.389 172.377 94.389 189C94.389 205.623 107.913 219.146 124.535 219.146C141.157 219.146 154.681 205.622 154.681 189C154.681 172.377 141.157 158.854 124.535 158.854Z" fill="#2D4680"/>
<path d="M124.535 238.078C97.473 238.078 75.456 216.061 75.456 188.999C75.456 161.937 97.473 139.921 124.535 139.921C151.597 139.921 173.613 161.937 173.613 188.999C173.613 216.062 151.597 238.078 124.535 238.078ZM124.535 142.715C99.013 142.715 78.249 163.479 78.249 189C78.249 214.522 99.013 235.286 124.535 235.286C150.056 235.286 170.82 214.522 170.82 189C170.82 163.478 150.056 142.715 124.535 142.715Z" fill="#2D4680"/>
<path d="M1 201.491V0H201.164L195.91 28.38C192.749 45.471 179.366 58.84 162.289 62.014H162.275C153.723 63.588 146.115 67.734 140.231 73.604C134.361 79.488 130.215 87.096 128.641 95.648C127.067 104.2 122.921 111.808 117.051 117.679C111.167 123.563 103.559 127.695 95.007 129.283C86.455 130.857 78.847 134.989 72.976 140.873C67.106 146.743 62.973 154.365 61.386 162.904C58.211 179.995 44.843 193.378 27.752 196.539L1 201.491Z" fill="#E64564"/>
<path d="M0.972992 31.651C13.808 31.651 24.208 42.05 24.208 54.886C24.208 67.707 13.809 78.107 0.972992 78.107V31.651Z" fill="#2D4680"/>
<path d="M0.972992 174.817C13.808 174.817 24.208 164.417 24.208 151.596C24.208 138.761 13.809 128.361 0.972992 128.361V174.817Z" fill="#F7FAFC"/>
<path d="M123.436 20.0911H103.285C103.285 31.2201 112.307 40.2421 123.436 40.2421V20.0911Z" fill="#2D4680"/>
<path d="M123.436 0.00708008H103.285C103.285 11.1361 112.307 20.1581 123.436 20.1581V0.00708008Z" fill="#FFD150"/>
<path d="M220.487 0.00708008H179.673C179.673 22.5481 197.946 40.8201 220.487 40.8201V0.00708008Z" fill="#2D4680"/>
<path d="M143.52 20.0911H123.369C123.369 31.2201 132.391 40.2421 143.52 40.2421V20.0911Z" fill="#FFD150"/>
<path d="M163.672 0.00708008H143.52C143.52 11.1361 152.542 20.1581 163.671 20.1581L163.672 0.00708008Z" fill="#F7FAFB"/>
</svg>
